<svg xmlns="http://www.w3.org/2000/svg" viewBox="0 0 13.65 12.1"><defs><style>.cls-1{fill:#cd1b27;}</style></defs><title>Asset 10</title><g id="Layer_2" data-name="Layer 2"><g id="Background_Shape_23_Shape_22_padang_pasir_pesan_peta_Menu_Atas_Image" data-name="Background + Shape 23 + Shape 22 + padang pasir + pesan + peta + Menu Atas Image"><path class="cls-1" d="M1.86,11.79a.28.28,0,0,0,.28.31H5.58V9.27A.4.4,0,0,1,6,8.81H7.42a.44.44,0,0,1,.5.46v2.82h3.36a.36.36,0,0,0,.37-.38V6.51L6.9,2.28l-5,4.23Z"/><path class="cls-1" d="M0,6.11s.43.79,1.36,0L6.94,1.39l5.23,4.69c1.08.78,1.48,0,1.48,0L6.94,0Z"/><polygon class="cls-1" points="12.04 1.38 10.7 1.38 10.7 3.01 12.04 4.15 12.04 1.38"/></g></g></svg>