<svg xmlns="http://www.w3.org/2000/svg" xmlns:xlink="http://www.w3.org/1999/xlink" viewBox="0 0 308.26 518.2"><defs><style>.cls-1{fill:#fff;}.cls-2{fill:#b9861a;}.cls-3{fill:#dea527;}.cls-4{fill:url(#linear-gradient);}.cls-5{fill:url(#linear-gradient-2);}.cls-6{fill:url(#linear-gradient-3);}.cls-7{fill:url(#linear-gradient-4);}.cls-8{fill:url(#linear-gradient-5);}</style><linearGradient id="linear-gradient" x1="150.33" y1="61.5" x2="157.16" y2="4.92" gradientUnits="userSpaceOnUse"><stop offset="0" stop-color="#c5171f"/><stop offset="1" stop-color="#960009"/></linearGradient><linearGradient id="linear-gradient-2" x1="350.1" y1="7.1" x2="156.96" y2="84.17" xlink:href="#linear-gradient"/><linearGradient id="linear-gradient-3" x1="232.6" y1="36.84" x2="20.84" y2="36.84" gradientUnits="userSpaceOnUse"><stop offset="0" stop-color="#c5171f"/><stop offset="1" stop-color="#960712"/></linearGradient><linearGradient id="linear-gradient-4" x1="-3.23" y1="503.61" x2="272.06" y2="495.85" gradientUnits="userSpaceOnUse"><stop offset="0" stop-color="#eac25a"/><stop offset="1" stop-color="#c29329"/></linearGradient><linearGradient id="linear-gradient-5" x1="152.75" y1="521.5" x2="158.61" y2="473.02" xlink:href="#linear-gradient"/></defs><title>Alamat Kantor Boxv</title><g id="Layer_2" data-name="Layer 2"><g id="Background_Shape_23_Shape_22_padang_pasir_pesan_peta_Menu_Atas_Image" data-name="Background + Shape 23 + Shape 22 + padang pasir + pesan + peta + Menu Atas Image"><rect class="cls-1" x="2.5" y="2.5" width="303.26" height="513.2" rx="2.56"/><path class="cls-2" d="M303.21,518.2H5.06A5.06,5.06,0,0,1,0,513.15V5.06A5.07,5.07,0,0,1,5.06,0H303.21a5.06,5.06,0,0,1,5.05,5.06V513.15A5.06,5.06,0,0,1,303.21,518.2ZM5.06,5,5,513.15l.06.05H303.21l.05-508.14Z"/><path class="cls-3" d="M302.76,5.5V512.7H5.5V5.5H302.76m.45-3H5.06A2.55,2.55,0,0,0,2.5,5.06V513.15a2.55,2.55,0,0,0,2.56,2.55H303.21a2.55,2.55,0,0,0,2.55-2.55V5.06a2.55,2.55,0,0,0-2.55-2.56Z"/><rect class="cls-4" x="5.5" y="5.5" width="297.26" height="48.99"/><path class="cls-5" d="M302.76,7.88S247.05,54.49,159.91,54.49H302.76Z"/><path class="cls-6" d="M198.46,54.49s-81.57-35.3-193-35.3v35.3Z"/><path class="cls-7" d="M302.76,478.89S245,503.16,192.47,503.16s-62-19.5-112-19.5-75,12.13-75,12.13V512.7H302.76Z"/><path class="cls-8" d="M302.76,475.85s-26.49,28.62-77.53,28.62-91.7-18.65-141.44-18.65S5.5,507.5,5.5,507.5v5.2H302.76Z"/><path class="cls-1" d="M79,35.2q-.23-.66-.48-1.35L78,32.48H72.8c-.17.46-.34.92-.5,1.38s-.33.91-.48,1.34H68.7c.5-1.35,1-2.61,1.43-3.76s.89-2.23,1.32-3.24.86-2,1.28-2.9.85-1.8,1.31-2.67h2.85q.66,1.31,1.29,2.67c.43.92.86,1.88,1.29,2.9s.88,2.1,1.33,3.24.93,2.41,1.43,3.76ZM75.4,25.48c-.07.18-.17.43-.3.74s-.27.68-.44,1.09-.35.87-.55,1.36-.41,1-.62,1.56h3.82l-.6-1.56c-.19-.5-.37-1-.54-1.37s-.33-.77-.46-1.09S75.48,25.65,75.4,25.48Z"/><path class="cls-1" d="M92.87,32.77V35.2H84V22.63h3V32.77Z"/><path class="cls-1" d="M104.36,35.2q-.23-.66-.48-1.35l-.51-1.37H98.15l-.51,1.38c-.17.46-.33.91-.47,1.34H94c.51-1.35,1-2.61,1.44-3.76s.89-2.23,1.32-3.24.86-2,1.28-2.9.85-1.8,1.3-2.67h2.85c.44.87.87,1.76,1.3,2.67s.85,1.88,1.29,2.9.87,2.1,1.32,3.24.93,2.41,1.44,3.76Zm-3.62-9.72c-.06.18-.16.43-.29.74s-.28.68-.44,1.09-.35.87-.56,1.36-.41,1-.62,1.56h3.82c-.2-.55-.4-1.07-.59-1.56s-.38-1-.55-1.37l-.45-1.09C100.93,25.9,100.82,25.65,100.74,25.48Z"/><path class="cls-1" d="M112.84,22.63c.23.4.5.89.8,1.48s.62,1.22,1,1.9.65,1.38,1,2.1.63,1.38.91,2c.28-.63.59-1.3.91-2s.65-1.42,1-2.1.64-1.32.94-1.9.57-1.08.81-1.48h2.73c.13.83.25,1.77.36,2.8s.2,2.11.29,3.23.16,2.24.23,3.36.13,2.19.18,3.18H121q-.06-1.83-.15-4c-.07-1.44-.16-2.89-.29-4.36l-.77,1.69c-.29.62-.57,1.24-.84,1.85l-.81,1.77c-.26.56-.47,1-.65,1.44h-2.11l-.65-1.44-.81-1.77c-.27-.61-.55-1.23-.84-1.85l-.77-1.69c-.13,1.47-.23,2.92-.29,4.36s-.11,2.77-.15,4h-2.93q.07-1.48.18-3.18c.07-1.12.15-2.24.23-3.36s.18-2.2.29-3.23.23-2,.36-2.8Z"/><path class="cls-1" d="M135.54,35.2q-.22-.66-.48-1.35l-.51-1.37h-5.22c-.16.46-.33.92-.5,1.38s-.33.91-.48,1.34h-3.12c.5-1.35,1-2.61,1.43-3.76s.89-2.23,1.33-3.24.85-2,1.27-2.9.86-1.8,1.31-2.67h2.85c.44.87.87,1.76,1.3,2.67s.85,1.88,1.28,2.9.88,2.1,1.33,3.24.93,2.41,1.43,3.76Zm-3.61-9.72-.29.74-.45,1.09c-.16.41-.35.87-.55,1.36s-.41,1-.62,1.56h3.82c-.21-.55-.4-1.07-.59-1.56s-.38-1-.55-1.37l-.45-1.09C132.12,25.9,132,25.65,131.93,25.48Z"/><path class="cls-1" d="M148.81,22.63V25h-4V35.2h-3V25h-4V22.63Z"/><path class="cls-1" d="M163.23,35.2c-.27-.41-.59-.85-.95-1.33s-.77-.95-1.19-1.43-.87-.95-1.33-1.39a15.88,15.88,0,0,0-1.39-1.18V35.2h-3V22.63h3v4.72c.77-.76,1.55-1.56,2.35-2.4l2.21-2.32h3.57c-.91,1-1.82,2-2.74,2.94s-1.89,1.88-2.91,2.84a21.52,21.52,0,0,1,3.09,3,36.43,36.43,0,0,1,2.87,3.81Z"/><path class="cls-1" d="M178,35.2q-.23-.66-.48-1.35c-.18-.46-.34-.91-.51-1.37h-5.22l-.51,1.38c-.17.46-.33.91-.47,1.34h-3.13c.51-1.35,1-2.61,1.44-3.76s.89-2.23,1.32-3.24.86-2,1.28-2.9.85-1.8,1.3-2.67h2.85c.44.87.87,1.76,1.3,2.67s.85,1.88,1.29,2.9.87,2.1,1.32,3.24.93,2.41,1.44,3.76Zm-3.62-9.72c-.06.18-.16.43-.29.74s-.28.68-.44,1.09-.35.87-.56,1.36-.41,1-.62,1.56h3.82c-.2-.55-.4-1.07-.59-1.56s-.38-1-.55-1.37l-.45-1.09C174.56,25.9,174.45,25.65,174.37,25.48Z"/><path class="cls-1" d="M191.88,35.2q-1.29-2.16-2.79-4.26a43.16,43.16,0,0,0-3.2-4V35.2h-3V22.63h2.45q.63.6,1.41,1.47c.51.58,1,1.2,1.57,1.86s1.06,1.34,1.59,2.05,1,1.38,1.48,2V22.63h3V35.2Z"/><path class="cls-1" d="M207.4,22.63V25h-4V35.2h-3V25h-4V22.63Z"/><path class="cls-1" d="M221.61,28.9a7.31,7.31,0,0,1-.51,2.84,5.69,5.69,0,0,1-3.51,3.3,8.37,8.37,0,0,1-2.63.41,8.12,8.12,0,0,1-2.59-.41,6.1,6.1,0,0,1-2.12-1.25,5.71,5.71,0,0,1-1.42-2.05,7.13,7.13,0,0,1-.52-2.84,7,7,0,0,1,.54-2.84,6,6,0,0,1,1.45-2,6.07,6.07,0,0,1,2.12-1.26,7.91,7.91,0,0,1,2.54-.41,8.11,8.11,0,0,1,2.58.41A5.89,5.89,0,0,1,219.66,24a6,6,0,0,1,1.43,2A7.38,7.38,0,0,1,221.61,28.9Zm-10.2,0a5.39,5.39,0,0,0,.24,1.67,3.66,3.66,0,0,0,.69,1.28,3.24,3.24,0,0,0,1.11.83,4,4,0,0,0,3,0,3.1,3.1,0,0,0,1.12-.83,3.66,3.66,0,0,0,.69-1.28,5.39,5.39,0,0,0,.24-1.67,5.48,5.48,0,0,0-.24-1.67,3.62,3.62,0,0,0-.69-1.29,3.1,3.1,0,0,0-1.12-.83,3.74,3.74,0,0,0-1.49-.29,3.6,3.6,0,0,0-1.51.3,3.27,3.27,0,0,0-1.11.84,3.66,3.66,0,0,0-.69,1.28A5.5,5.5,0,0,0,211.41,28.9Z"/><path class="cls-1" d="M228,22.48a8.67,8.67,0,0,1,4.6,1,3.42,3.42,0,0,1,1.6,3.13,3.39,3.39,0,0,1-.64,2.15,4.29,4.29,0,0,1-1.86,1.3,13.66,13.66,0,0,1,.84,1.08c.3.4.59.82.88,1.27s.57.9.84,1.37.52,1,.75,1.41h-3.36c-.25-.41-.49-.83-.75-1.25s-.5-.84-.77-1.24-.53-.77-.78-1.13a11.77,11.77,0,0,0-.78-1h-1.48V35.2h-3V22.81a18.94,18.94,0,0,1,2-.26C226.85,22.51,227.47,22.48,228,22.48Zm.17,2.41-.59,0-.49,0v3.41H228a5.36,5.36,0,0,0,2.43-.4,1.44,1.44,0,0,0,.73-1.36,1.38,1.38,0,0,0-.74-1.32A4.87,4.87,0,0,0,228.2,24.89Z"/></g></g></svg>