<svg xmlns="http://www.w3.org/2000/svg" viewBox="0 0 12.77 10.03"><title>mail</title><g id="Layer_2" data-name="Layer 2"><g id="Background_Shape_23_Shape_22_padang_pasir_pesan_peta_Menu_Atas_Image" data-name="Background + Shape 23 + Shape 22 + padang pasir + pesan + peta + Menu Atas Image"><path d="M1.23,3.09l1.46,1,1.86,1.3.31.21.38.28.37.23A2.44,2.44,0,0,0,6,6.32a1.23,1.23,0,0,0,.36.06h0a1.23,1.23,0,0,0,.36-.06,2.44,2.44,0,0,0,.41-.19l.37-.23.38-.28.31-.21c.43-.31,1.54-1.08,3.33-2.32a3.27,3.27,0,0,0,.87-.87,1.93,1.93,0,0,0,.35-1.08,1.14,1.14,0,0,0-.34-.81,1.11,1.11,0,0,0-.8-.33H1.14A1,1,0,0,0,.3.37,1.44,1.44,0,0,0,0,1.3a1.66,1.66,0,0,0,.39,1A3.41,3.41,0,0,0,1.23,3.09Z"/><path d="M12.06,3.85C10.5,4.91,9.31,5.73,8.51,6.31c-.27.2-.49.36-.66.47a4.26,4.26,0,0,1-.68.34,2,2,0,0,1-.78.18h0a2,2,0,0,1-.79-.18,4.56,4.56,0,0,1-.67-.34c-.17-.11-.39-.27-.66-.47q-1-.7-3.54-2.46A3.57,3.57,0,0,1,0,3.23V8.89a1.12,1.12,0,0,0,.33.81,1.13,1.13,0,0,0,.81.33H11.63a1.14,1.14,0,0,0,1.14-1.14V3.23A3.85,3.85,0,0,1,12.06,3.85Z"/></g></g></svg>