<svg xmlns="http://www.w3.org/2000/svg" viewBox="0 0 13.21 13.21"><title>Fax </title><g id="Layer_2" data-name="Layer 2"><g id="Background_Shape_23_Shape_22_padang_pasir_pesan_peta_Menu_Atas_Image" data-name="Background + Shape 23 + Shape 22 + padang pasir + pesan + peta + Menu Atas Image"><path d="M1.57,2.24h0A1.57,1.57,0,0,0,0,3.81V12.3a.9.9,0,0,0,.9.91H2.23a.9.9,0,0,0,.9-.91V3.81A1.57,1.57,0,0,0,1.57,2.24Z"/><path d="M12.82,3.79h-.39V6.93H4.68V3.79H3.91v9a.39.39,0,0,0,.38.39h8.53a.4.4,0,0,0,.39-.39V4.18A.39.39,0,0,0,12.82,3.79Zm-6.7,7.68a.39.39,0,0,1-.27.11.39.39,0,0,1-.28-.11.43.43,0,0,1-.11-.28.39.39,0,0,1,.11-.27.39.39,0,0,1,.28-.11.38.38,0,0,1,.38.38A.43.43,0,0,1,6.12,11.47Zm0-1.55a.39.39,0,0,1-.27.11.38.38,0,0,1-.39-.39.39.39,0,0,1,.11-.27.39.39,0,0,1,.28-.11.38.38,0,0,1,.38.38A.39.39,0,0,1,6.12,9.92Zm0-1.55a.39.39,0,0,1-.27.11.39.39,0,0,1-.28-.11.39.39,0,0,1-.11-.27.43.43,0,0,1,.11-.28.39.39,0,0,1,.28-.11.39.39,0,0,1,.27.11.43.43,0,0,1,.11.28A.39.39,0,0,1,6.12,8.37Zm1.55,3.1a.41.41,0,0,1-.28.11.39.39,0,0,1-.27-.11A.43.43,0,0,1,7,11.19a.38.38,0,0,1,.38-.38.41.41,0,0,1,.28.11.39.39,0,0,1,.11.27A.43.43,0,0,1,7.67,11.47Zm0-1.55a.41.41,0,0,1-.28.11.39.39,0,0,1-.27-.11A.39.39,0,0,1,7,9.64a.38.38,0,0,1,.38-.38.41.41,0,0,1,.28.11.39.39,0,0,1,.11.27A.39.39,0,0,1,7.67,9.92Zm0-1.55a.41.41,0,0,1-.28.11A.38.38,0,0,1,7,8.1a.43.43,0,0,1,.11-.28.39.39,0,0,1,.27-.11.41.41,0,0,1,.28.11.43.43,0,0,1,.11.28A.39.39,0,0,1,7.67,8.37Zm1.54,3.1a.39.39,0,0,1-.54,0,.44.44,0,0,1-.12-.28.4.4,0,0,1,.12-.27.39.39,0,0,1,.54,0,.36.36,0,0,1,.12.27A.39.39,0,0,1,9.21,11.47Zm0-1.55a.39.39,0,0,1-.54,0,.4.4,0,0,1-.12-.28.4.4,0,0,1,.12-.27.39.39,0,0,1,.54,0,.36.36,0,0,1,.12.27A.36.36,0,0,1,9.21,9.92Zm0-1.55a.39.39,0,0,1-.54,0,.4.4,0,0,1-.12-.27.44.44,0,0,1,.12-.28.39.39,0,0,1,.54,0,.39.39,0,0,1,.12.28A.36.36,0,0,1,9.21,8.37ZM11.27,10h-.78a.39.39,0,1,1,0-.77h.78a.39.39,0,1,1,0,.77Zm0-1.55h-.78a.39.39,0,1,1,0-.77h.78a.39.39,0,1,1,0,.77Z"/><path d="M11.66.39A.39.39,0,0,0,11.27,0H5.84a.38.38,0,0,0-.38.39V6.15h6.2V.39Zm-1.94,5H7.29a.39.39,0,0,1,0-.78H9.72a.39.39,0,1,1,0,.78Zm0-1.55H7.29a.39.39,0,1,1,0-.77H9.72a.39.39,0,1,1,0,.77Zm0-1.55H7.29a.39.39,0,1,1,0-.77H9.72a.39.39,0,1,1,0,.77Z"/></g></g></svg>