<svg xmlns="http://www.w3.org/2000/svg" viewBox="0 0 11.21 10.36"><title>Phone</title><g id="Layer_2" data-name="Layer 2"><g id="Background_Shape_23_Shape_22_padang_pasir_pesan_peta_Menu_Atas_Image" data-name="Background + Shape 23 + Shape 22 + padang pasir + pesan + peta + Menu Atas Image"><path d="M11.17,7.67c-.07-.12-.26-.19-.53-.32S9,6.55,8.75,6.46s-.43-.14-.62.13-.71.89-.87,1.08-.32.2-.6.06A7.36,7.36,0,0,1,4.45,6.38a8.26,8.26,0,0,1-1.54-1.9c-.16-.27,0-.42.12-.56s.28-.31.42-.47A2.13,2.13,0,0,0,3.72,3a.51.51,0,0,0,0-.48c-.07-.14-.62-1.48-.85-2S2.39,0,2.23,0L1.7,0A1.05,1.05,0,0,0,1,.34,3.09,3.09,0,0,0,0,2.62,5.25,5.25,0,0,0,1.13,5.45,11.08,11.08,0,0,0,5.84,9.58c2.8,1.1,2.8.73,3.3.69A2.8,2.8,0,0,0,11,9,2.25,2.25,0,0,0,11.17,7.67Z"/></g></g></svg>