<svg xmlns="http://www.w3.org/2000/svg" viewBox="0 0 14.73 14.73"><title>Whatsapp</title><g id="Layer_2" data-name="Layer 2"><g id="Background_Shape_23_Shape_22_padang_pasir_pesan_peta_Menu_Atas_Image" data-name="Background + Shape 23 + Shape 22 + padang pasir + pesan + peta + Menu Atas Image"><path id="WhatsApp" d="M14.73,7.18A7.25,7.25,0,0,1,4,13.46L0,14.73l1.31-3.85a7.08,7.08,0,0,1-1-3.7,7.23,7.23,0,0,1,14.46,0Zm-7.23-6a6.07,6.07,0,0,0-6.08,6,5.93,5.93,0,0,0,1.16,3.53L1.82,13l2.33-.74a6.09,6.09,0,0,0,9.43-5A6.07,6.07,0,0,0,7.5,1.14Zm3.65,7.69c0-.07-.16-.12-.34-.21S9.76,8.11,9.6,8.05s-.28-.09-.4.09-.46.57-.56.69-.21.13-.38,0A4.84,4.84,0,0,1,6.83,8a5.45,5.45,0,0,1-1-1.22c-.1-.17,0-.27.08-.36l.27-.3a1,1,0,0,0,.17-.3.34.34,0,0,0,0-.31c0-.08-.4-1-.55-1.3s-.29-.3-.4-.3H5.06a.64.64,0,0,0-.47.22A2,2,0,0,0,4,5.59,3.42,3.42,0,0,0,4.7,7.41a7.18,7.18,0,0,0,3,2.65c1.81.71,1.81.47,2.13.44a1.77,1.77,0,0,0,1.2-.84A1.36,1.36,0,0,0,11.15,8.83Z"/></g></g></svg>