<svg xmlns="http://www.w3.org/2000/svg" xmlns:xlink="http://www.w3.org/1999/xlink" viewBox="0 0 1921.16 122.79"><defs><style>.cls-1{isolation:isolate;}.cls-2{fill:url(#linear-gradient);}.cls-3{fill:url(#linear-gradient-2);}.cls-4{mix-blend-mode:multiply;fill:url(#linear-gradient-3);}.cls-5{fill:url(#linear-gradient-4);}.cls-6{fill:url(#linear-gradient-5);}.cls-7{fill:url(#linear-gradient-6);}.cls-8{fill:url(#linear-gradient-7);}</style><linearGradient id="linear-gradient" x1="46.01" y1="-14.08" x2="415.39" y2="125.09" gradientUnits="userSpaceOnUse"><stop offset="0" stop-color="#bb842c"/><stop offset="0.49" stop-color="#fbf8cd"/><stop offset="1" stop-color="#bd852c"/></linearGradient><linearGradient id="linear-gradient-2" y1="76.27" x2="397.13" y2="76.27" gradientUnits="userSpaceOnUse"><stop offset="0" stop-color="#b52025"/><stop offset="1" stop-color="#951a1d"/></linearGradient><linearGradient id="linear-gradient-3" x1="355.75" y1="44.89" x2="480.07" y2="91.72" xlink:href="#linear-gradient"/><linearGradient id="linear-gradient-4" x1="1463.51" y1="173.18" x2="1879.71" y2="47.02" xlink:href="#linear-gradient"/><linearGradient id="linear-gradient-5" x1="349.87" y1="81.93" x2="992.38" y2="81.93" xlink:href="#linear-gradient"/><linearGradient id="linear-gradient-6" x1="934.08" y1="96.88" x2="1505.7" y2="130.04" xlink:href="#linear-gradient-2"/><linearGradient id="linear-gradient-7" x1="1641.81" y1="155.69" x2="1713.99" y2="-29.65" xlink:href="#linear-gradient-2"/></defs><title>BAWAHxxxhdpi</title><g class="cls-1"><g id="Layer_2" data-name="Layer 2"><g id="Layer_1-2" data-name="Layer 1"><path class="cls-2" d="M711.88,122.26s-58.53-92-183.39-92-141.77,46-221.11,46S195.53,0,113.59,0,0,9.48,0,9.48V122.26Z"/><path class="cls-3" d="M397.13,122.26S381.52,55,294.38,55,168.22,97.92,122.7,55,0,38.09,0,38.09v84.17Z"/><path class="cls-4" d="M597.84,43S434.09,33.4,314.1,122.26H522.85Z"/><path class="cls-5" d="M1921.16,13.88s-93.3-20-213.81,9.47-298.62,99.44-369,99.44h582.82Z"/><path class="cls-6" d="M992.38,122.79S797.28,41.06,650.31,41.06s-267.92,46.4-300.44,81.73Z"/><path class="cls-7" d="M1621.88,78.25S1408.58,95,1174.46,64.49,677.63,18,362.88,122.26H1610.17Z"/><path class="cls-8" d="M1921.16,21.88s-85.33-18.53-195.56,8.78-273.13,92.13-337.51,92.13h533.07Z"/></g></g></g></svg>